<?xml version="1.0" encoding="UTF-8"?>
<svg id="Camada_2" data-name="Camada 2" xmlns="http://www.w3.org/2000/svg" viewBox="0 0 196.49 73.41">
  <defs>
    <style>
      .cls-1 {
        fill: #7543c4;
      }

      .cls-1, .cls-2, .cls-3 {
        stroke-width: 0px;
      }

      .cls-2 {
        fill: #113f59;
      }

      .cls-3 {
        fill: #27ae4b;
      }
    </style>
  </defs>
  <g id="Camada_1-2" data-name="Camada 1">
    <g>
      <g>
        <path class="cls-2" d="m14.32,58.09c-.33,0-.57-.06-.69-.17-.13-.11-.19-.36-.19-.73l-.03-20.5c0-.37.06-.61.19-.73.13-.11.36-.17.69-.17h5.44c4.57-.01,7.95.91,10.15,2.77,2.2,1.86,3.3,4.65,3.3,8.38,0,3.81-1.08,6.61-3.27,8.42s-5.51,2.71-9.98,2.71h-5.61Zm5.55-3.46c1.5,0,2.79-.14,3.88-.41,1.09-.27,2-.71,2.72-1.32.72-.61,1.25-1.4,1.59-2.36.34-.97.51-2.16.51-3.58,0-1.48-.19-2.72-.57-3.7-.38-.99-.94-1.78-1.69-2.37s-1.68-1.02-2.79-1.26c-1.11-.25-2.41-.37-3.88-.36h-1.83s.02,15.38.02,15.38h2.04Z"/>
        <path class="cls-2" d="m44.6,41.26c1.34,0,2.49.14,3.44.41.96.28,1.74.67,2.35,1.17.61.5,1.06,1.11,1.35,1.82.29.71.43,1.5.43,2.36,0,1.13-.21,2.05-.63,2.75-.42.7-.96,1.24-1.62,1.62-.66.38-1.4.64-2.23.77-.83.14-1.65.2-2.48.2-.85,0-1.64-.04-2.38-.14-.74-.09-1.45-.25-2.14-.48.26,1.05.8,1.8,1.64,2.25.84.45,2.02.68,3.56.67.89,0,1.74-.06,2.56-.19.82-.12,1.54-.3,2.17-.53.34-.1.59-.19.77-.26.18-.07.33-.11.47-.11.24,0,.35.13.35.4v2.32c0,.23-.05.41-.14.56-.1.14-.29.27-.56.37-.37.14-1.05.35-2.04.62-.99.27-2.25.4-3.78.41-1.59,0-2.97-.19-4.12-.58-1.15-.39-2.1-.94-2.85-1.66-.75-.72-1.31-1.59-1.67-2.62-.37-1.03-.55-2.18-.55-3.46,0-1.3.17-2.47.51-3.54s.85-1.97,1.53-2.73c.68-.76,1.52-1.36,2.54-1.78,1.01-.42,2.19-.64,3.53-.64Zm0,3.58c-1.1,0-2,.32-2.7.95-.7.63-1.14,1.58-1.31,2.86.69.16,1.39.29,2.11.37.72.08,1.38.12,1.99.12,1.12,0,1.99-.17,2.61-.5.62-.33.93-.89.93-1.67,0-.76-.32-1.31-.96-1.63-.64-.33-1.53-.49-2.67-.49Z"/>
        <path class="cls-2" d="m60.51,57.13c0,.37-.06.61-.19.73-.13.11-.36.17-.69.17h-2.39c-.35,0-.59-.05-.71-.16-.12-.11-.18-.36-.18-.73l-.03-21.76c0-.37.06-.61.18-.73.12-.11.35-.17.71-.17h2.39c.33,0,.57.05.69.16.13.11.19.35.19.73l.03,21.76Z"/>
        <path class="cls-2" d="m64.8,37.19c0-.86.25-1.54.76-2.04.51-.49,1.13-.74,1.86-.74.63,0,1.18.23,1.65.69.47.46.71,1.09.71,1.87,0,.84-.27,1.5-.81,1.96-.54.46-1.17.7-1.87.7-.63,0-1.17-.21-1.63-.65-.45-.43-.68-1.03-.68-1.79Zm.42,5.31c0-.37.06-.61.18-.73.12-.11.35-.17.71-.17h2.39c.33,0,.57.05.69.17.13.11.19.35.19.73l.02,14.63c0,.37-.06.61-.19.73-.13.11-.36.17-.69.17h-2.39c-.35,0-.59-.05-.71-.16-.12-.11-.18-.36-.18-.73l-.02-14.63Z"/>
        <path class="cls-2" d="m84.77,42.53c.06-.23.12-.4.18-.53.06-.12.13-.22.21-.28.08-.06.18-.1.29-.12s.27-.03.47-.03h2.6c.34,0,.55.06.65.2.1.13.09.38-.03.73l-5.62,15.07c-.08.16-.15.28-.22.34-.07.06-.19.09-.37.09h-3.9c-.18,0-.31-.03-.38-.09-.08-.06-.15-.17-.21-.34l-5.69-15.06c-.1-.35-.1-.59-.02-.73.09-.13.3-.2.63-.2h2.63c.39,0,.65.04.77.14.12.09.24.36.36.82l3.86,11.29,3.79-11.3Z"/>
        <path class="cls-2" d="m99.86,41.18c1.34,0,2.49.14,3.44.41.96.28,1.74.67,2.35,1.17.61.5,1.06,1.11,1.35,1.82.29.71.43,1.5.43,2.36,0,1.13-.21,2.05-.63,2.75s-.96,1.24-1.62,1.62c-.66.38-1.4.64-2.23.77s-1.65.2-2.48.2c-.85,0-1.64-.04-2.38-.14-.74-.09-1.45-.25-2.14-.48.26,1.05.8,1.8,1.64,2.25s2.02.68,3.56.67c.89,0,1.74-.06,2.56-.19.82-.13,1.54-.3,2.17-.53.34-.1.59-.19.77-.26s.33-.11.47-.11c.24,0,.35.13.35.4v2.32c0,.23-.05.41-.14.56-.1.14-.29.27-.56.37-.37.15-1.05.35-2.04.62-.99.27-2.25.4-3.78.41-1.59,0-2.97-.19-4.12-.58-1.15-.39-2.1-.94-2.85-1.66-.75-.72-1.31-1.59-1.67-2.62-.37-1.03-.55-2.18-.55-3.46,0-1.3.17-2.47.51-3.53.34-1.06.85-1.97,1.53-2.74.68-.76,1.52-1.36,2.54-1.78,1.01-.42,2.19-.64,3.53-.64Zm0,3.58c-1.1,0-2,.32-2.7.95-.7.63-1.14,1.58-1.31,2.86.69.16,1.39.29,2.11.37.72.08,1.38.12,1.99.12,1.12,0,1.99-.17,2.61-.5.62-.33.93-.89.93-1.67,0-.76-.32-1.31-.96-1.64-.64-.33-1.53-.49-2.67-.49Z"/>
      </g>
      <g>
        <path class="cls-3" d="m0,27.67c0-.47.08-.76.26-.86.17-.1.49-.09.94.02.64.14,1.47.28,2.48.41,1.01.14,2.03.21,3.04.21,2.03,0,3.51-.5,4.44-1.49.93-.99,1.4-2.69,1.4-5.09l-.02-18c0-.5.08-.83.26-.98.17-.15.49-.23.94-.23h3.57c.45,0,.77.07.94.22.17.15.26.48.26.98l.02,18c0,1.79-.19,3.38-.57,4.8-.39,1.41-1.01,2.6-1.88,3.58-.87.98-1.98,1.73-3.34,2.24-1.36.52-3.02.78-4.97.78-.77,0-1.54-.03-2.3-.1-.76-.07-1.46-.15-2.08-.23-.63-.08-1.17-.17-1.62-.27-.46-.1-.78-.17-.96-.23-.32-.11-.53-.26-.64-.44-.11-.18-.16-.43-.16-.73v-2.6Z"/>
        <path class="cls-3" d="m43.98,25.73c.03,1.09.47,1.63,1.32,1.63.37,0,.65-.03.84-.09.19-.05.39-.08.6-.08.32-.03.48.11.48.42v3.01c0,.22-.04.43-.12.61-.08.18-.25.31-.52.4-.35.14-.76.25-1.24.34-.48.08-1.22.13-2.2.13-.85,0-1.71-.17-2.56-.52-.86-.35-1.48-1.02-1.89-2.03-.8.81-1.81,1.44-3.04,1.89-1.23.45-2.66.67-4.28.68-2.59,0-4.53-.57-5.83-1.71-1.3-1.14-1.95-2.8-1.95-4.98,0-1.45.3-2.64.9-3.56.6-.92,1.46-1.64,2.58-2.16,1.12-.52,2.49-.88,4.1-1.07,1.62-.2,3.44-.3,5.47-.3h1.68s0-.59,0-.59c0-.78-.13-1.42-.38-1.9-.25-.49-.62-.86-1.1-1.13-.48-.26-1.07-.44-1.76-.52s-1.48-.12-2.36-.12c-1.55,0-2.86.08-3.92.24-1.07.16-1.86.27-2.36.36-.29.06-.53.04-.7-.04-.17-.08-.26-.28-.26-.59v-2.85c0-.47.07-.81.21-1.01.15-.19.49-.36,1.02-.5.32-.08.73-.16,1.22-.23.49-.07,1.05-.13,1.66-.19s1.27-.1,1.98-.13c.71-.03,1.42-.04,2.14-.04.75,0,1.52.03,2.32.08.8.05,1.58.17,2.34.35.76.18,1.48.45,2.14.81.67.36,1.26.84,1.78,1.44.52.6.93,1.35,1.22,2.24.29.89.44,1.97.45,3.22v8.5Zm-14.74-.36c0,.73.3,1.24.88,1.55.59.31,1.44.46,2.56.46,1.68,0,3.04-.36,4.08-1.07,1.04-.71,1.56-1.74,1.56-3.08v-.46s-1.68,0-1.68,0c-1.42,0-2.6.04-3.54.13-.95.08-1.71.23-2.28.44-.57.21-.98.48-1.22.82-.24.34-.36.74-.36,1.21Z"/>
        <path class="cls-3" d="m55.87,20.52c0,1.28.16,2.35.49,3.2.32.85.77,1.53,1.34,2.03.58.5,1.26.86,2.04,1.06.79.21,1.64.31,2.55.31,1.04,0,1.97-.1,2.78-.3s1.5-.39,2.06-.59c.45-.14.78-.19.98-.15s.3.3.3.77v3.06c0,.39-.06.67-.18.84-.12.17-.31.31-.58.42-.43.14-1.15.34-2.18.59s-2.37.38-4.03.38c-3.98,0-6.91-.95-8.8-2.86s-2.83-4.8-2.84-8.68c0-3.88.93-6.78,2.81-8.69s4.77-2.87,8.67-2.88c1.5,0,2.8.11,3.91.33,1.11.22,1.89.4,2.34.54.35.14.58.29.7.44s.18.4.18.73v3.43c0,.25-.05.43-.17.52-.12.1-.37.08-.74-.06-.56-.22-1.22-.43-1.98-.63-.76-.19-1.78-.29-3.06-.29-.91,0-1.76.09-2.56.28-.8.18-1.5.51-2.1.99-.6.48-1.07,1.13-1.42,1.97-.35.84-.52,1.91-.52,3.23Z"/>
        <path class="cls-3" d="m92.29,25.66c.03,1.09.47,1.63,1.32,1.63.37,0,.65-.03.84-.08.19-.05.39-.08.6-.08.32-.03.48.11.48.42v3.01c0,.22-.04.43-.12.61-.08.18-.25.31-.52.4-.35.14-.76.25-1.24.34-.48.08-1.22.13-2.2.13-.85,0-1.71-.17-2.56-.52-.86-.35-1.48-1.02-1.89-2.03-.8.81-1.81,1.44-3.04,1.89-1.23.45-2.66.67-4.28.68-2.59,0-4.53-.57-5.83-1.71-1.3-1.14-1.95-2.8-1.95-4.98,0-1.45.3-2.64.9-3.56s1.46-1.64,2.58-2.16,2.49-.88,4.1-1.07c1.62-.2,3.44-.3,5.47-.3h1.68s0-.59,0-.59c0-.78-.13-1.42-.38-1.91-.25-.49-.62-.86-1.1-1.13-.48-.26-1.07-.44-1.76-.52s-1.48-.12-2.36-.12c-1.55,0-2.86.08-3.92.24-1.07.16-1.86.27-2.36.36-.29.06-.53.04-.7-.04-.17-.08-.26-.28-.26-.59v-2.85c0-.47.07-.81.21-1.01.15-.2.49-.36,1.02-.5.32-.08.73-.16,1.22-.23.49-.07,1.05-.13,1.66-.19s1.27-.1,1.98-.13c.71-.03,1.42-.04,2.14-.04.75,0,1.52.03,2.32.08s1.58.17,2.34.35c.76.18,1.48.45,2.14.81.67.36,1.26.84,1.78,1.44.52.6.93,1.35,1.22,2.24.29.89.44,1.97.45,3.22v8.5Zm-14.74-.36c0,.73.3,1.24.88,1.55.59.31,1.44.46,2.56.46,1.68,0,3.04-.36,4.08-1.07,1.04-.71,1.56-1.74,1.56-3.08v-.46s-1.68,0-1.68,0c-1.42,0-2.6.05-3.54.13-.95.08-1.71.23-2.28.44-.57.21-.98.48-1.22.82-.24.33-.36.74-.36,1.21Z"/>
        <path class="cls-3" d="m99.4,9.72c.16-.15.48-.23.96-.23h3.25c.45,0,.77.07.94.22.17.15.26.48.26.98v4.06c.14-.5.36-1.08.66-1.74.31-.66.74-1.29,1.3-1.89.56-.6,1.25-1.11,2.08-1.53.83-.42,1.84-.63,3.04-.63.91,0,1.62.11,2.12.33.32.11.52.26.58.46s.1.42.1.67v3.35c0,.34-.05.52-.17.57-.12.04-.33.04-.62-.02-.32-.08-.65-.14-.98-.17-.33-.03-.65-.04-.94-.04-1.28,0-2.38.31-3.28.93-.91.62-1.65,1.38-2.22,2.31-.57.92-.99,1.92-1.26,3-.27,1.07-.4,2.07-.4,2.99v7.2c.01.5-.08.83-.25.98-.17.15-.49.23-.94.23h-3.25c-.48,0-.8-.07-.96-.22-.16-.15-.24-.48-.24-.98l-.03-19.85c0-.5.08-.83.24-.98Z"/>
        <path class="cls-3" d="m128.32,8.95c1.82,0,3.37.18,4.67.56,1.3.38,2.36.9,3.19,1.59s1.44,1.5,1.83,2.47c.39.96.58,2.03.59,3.2,0,1.54-.28,2.78-.86,3.73s-1.31,1.68-2.2,2.2c-.89.52-1.9.87-3.02,1.05-1.12.18-2.24.27-3.36.28-1.15,0-2.22-.06-3.23-.18-1-.13-1.97-.34-2.9-.65.35,1.42,1.09,2.44,2.23,3.05,1.14.61,2.75.92,4.83.91,1.2,0,2.36-.09,3.46-.26,1.11-.17,2.09-.41,2.94-.72.45-.14.8-.26,1.04-.36.24-.1.45-.15.64-.15.32,0,.48.18.48.54v3.14c0,.31-.06.56-.2.75-.13.2-.39.36-.76.5-.51.2-1.43.48-2.76.84-1.34.36-3.04.55-5.13.55-2.16,0-4.03-.26-5.59-.79-1.56-.53-2.85-1.28-3.87-2.26-1.02-.97-1.77-2.16-2.27-3.56s-.75-2.96-.75-4.69c0-1.76.23-3.36.69-4.79.46-1.44,1.16-2.67,2.08-3.71.92-1.03,2.07-1.84,3.44-2.41,1.37-.57,2.97-.86,4.79-.87Zm0,4.86c-1.5,0-2.72.43-3.66,1.28-.95.85-1.54,2.15-1.78,3.88.94.22,1.89.39,2.87.5.97.11,1.88.16,2.7.16,1.52,0,2.7-.23,3.54-.67.84-.45,1.26-1.2,1.26-2.26,0-1.03-.44-1.77-1.3-2.22-.87-.45-2.08-.67-3.63-.66Zm-2.41-8.79c-.11-.31-.15-.55-.12-.73.03-.18.19-.34.48-.48l7.57-3.57c.35-.17.63-.25.86-.23.23.01.42.2.58.56l.96,2.43c.13.39.19.68.16.88-.03.2-.25.34-.68.42l-8.21,2.36c-.56.17-.94.03-1.12-.42l-.48-1.21Z"/>
      </g>
      <g>
        <path class="cls-2" d="m181.91,29.14h-1.62v-12.63c0-4.92-4-8.93-8.93-8.93s-8.93,4-8.93,8.93v12.63h-1.62v-12.63c0-5.82,4.73-10.55,10.55-10.55s10.55,4.73,10.55,10.55v12.63Z"/>
        <path class="cls-2" d="m193.25,23.85l-37.21-.17c-1.4,0-2.72.73-3.43,1.82v13.94l17.45-7.68.55-.24h.58c.83,0,1.61.37,2.14,1.01.53.64.74,1.48.59,2.29l-5.5,28.84c-.25,1.31-1.4,2.26-2.73,2.26-1.06,0-2.02-.59-2.49-1.55l-2.36-4.77c-.61.34-1.14.62-1.3.7-1.52.77-3.24,1.45-5.26,2.09-.55.18-1.1.31-1.66.46v9.79c5.38-.29,10.79-1.27,16-2.95,3.53-1.13,6.96-2.58,10.23-4.31,2.66-1.41,5.95-3.21,6.89-6.01l10.6-31.65c.67-2.01-.81-3.89-3.08-3.9Z"/>
        <g>
          <g>
            <path class="cls-2" d="m158.94,29.87c0,1.15-.94,2.09-2.09,2.09s-2.09-.94-2.09-2.09.94-2.09,2.09-2.09,2.09.94,2.09,2.09Z"/>
            <path class="cls-2" d="m156.85,32.37c-1.38,0-2.49-1.12-2.49-2.5s1.12-2.49,2.49-2.49,2.5,1.12,2.5,2.49-1.12,2.5-2.5,2.5Zm0-4.18c-.93,0-1.68.75-1.68,1.68s.75,1.68,1.68,1.68,1.68-.76,1.68-1.68-.76-1.68-1.68-1.68Z"/>
          </g>
          <g>
            <path class="cls-2" d="m178.41,29.87c0,1.15-.94,2.09-2.09,2.09s-2.09-.94-2.09-2.09.94-2.09,2.09-2.09,2.09.94,2.09,2.09Z"/>
            <path class="cls-2" d="m176.33,32.37c-1.38,0-2.49-1.12-2.49-2.5s1.12-2.49,2.49-2.49,2.49,1.12,2.49,2.49-1.12,2.5-2.49,2.5Zm0-4.18c-.93,0-1.68.75-1.68,1.68s.75,1.68,1.68,1.68,1.68-.76,1.68-1.68-.75-1.68-1.68-1.68Z"/>
          </g>
        </g>
        <path class="cls-2" d="m177.14,29.87h-1.62v-12.63c0-4.92-4-8.93-8.93-8.93s-8.93,4-8.93,8.93v12.63h-1.62v-12.63c0-5.82,4.73-10.55,10.55-10.55s10.55,4.73,10.55,10.55v12.63Z"/>
      </g>
      <g>
        <path class="cls-2" d="m161.91,55.63l-.14.19c.1-.09.16-.16.14-.19Z"/>
        <path class="cls-1" d="m171.18,34.26s-.01,0-.02,0l-28.43,12.51s-.03.08.01.09l10.8,1.11s-23.51,23.03-45.83-16.01c0,0,19.23,44.88,54.19,23.67l3.73,7.54s.02.02.04.02c.02,0,.04-.01.04-.04l5.5-28.84s-.02-.05-.04-.05Z"/>
      </g>
      <g>
        <path class="cls-2" d="m134.08,52.75c1.44.2,2.82.22,4.14.12l2.57-6.66-.07-.38.28-.15,1.22-3.17c.16-.37.18-.63.07-.79-.11-.15-.3-.23-.58-.23h-2.95c-.26,0-.43.05-.53.13-.1.08-.2.26-.3.52l-3.94,10.58s.06.01.09.02Z"/>
        <path class="cls-2" d="m134.61,61.68c-1.2-.39-2.37-.85-3.5-1.37-.29.55-.61,1-.99,1.28-.54.38-1.17.57-1.87.57-.49,0-.89-.03-1.18-.09-.3-.06-.61-.14-.95-.25-.3-.1-.44.01-.44.34l-.03,2.53c0,.37.17.61.5.71.35.12.78.23,1.27.32.49.09,1.08.14,1.77.14.63,0,1.22-.08,1.77-.23.55-.15,1.07-.41,1.55-.76.48-.35.93-.83,1.34-1.42.33-.48.63-1.07.92-1.73-.06-.02-.11-.03-.17-.05Z"/>
        <path class="cls-2" d="m128.18,51c1.6.73,3.23,1.25,4.88,1.56l-4.14-10.4c-.1-.25-.19-.42-.28-.51-.09-.09-.26-.14-.52-.14h-3.04c-.59,0-.73.36-.41,1.05l3.52,8.43Z"/>
      </g>
      <g>
        <path class="cls-2" d="m119.77,45.12c.39-.11.81-.17,1.27-.17.22,0,.45,0,.69.03.25.02.49.06.72.12.22.04.37.05.46.01.09-.03.13-.17.13-.42v-2.47c0-.19-.03-.35-.08-.49-.05-.14-.19-.26-.43-.34-.37-.16-.9-.25-1.56-.24-.89,0-1.63.16-2.24.47-.54.27-.98.61-1.37.98.79.89,1.6,1.74,2.4,2.52Z"/>
        <path class="cls-2" d="m116.35,48.65c-1.82-2.13-3.41-4.27-4.76-6.27,0,.02,0,.03,0,.05l.02,14.63c0,.37.06.61.18.73.12.11.35.17.71.17h2.39c.33,0,.57-.06.69-.17.13-.11.19-.36.19-.73v-5.31c0-.68.09-1.42.28-2.21.08-.31.18-.6.29-.89Z"/>
      </g>
      <path class="cls-3" d="m186.58,20.29h-36.38c-1.69,0-3.15,1.21-3.46,2.87.03.93.03,1.86.04,2.79,0,1.99.15,11.01.18,15.97l23.09-10.16.55-.24h.58c.83,0,1.61.37,2.14,1.01.53.64.74,1.48.59,2.29l-5.5,28.84c-.25,1.31-1.4,2.26-2.73,2.26-1.06,0-2.02-.59-2.49-1.55l-2.36-4.77c-.61.34-1.14.62-1.3.7-1.52.77-3.24,1.45-5.26,2.09-3.78,1.2-7.52,1.81-11.1,1.81h-.06c-2.42,0-4.79-.31-7.06-.87-.22.44-.45.83-.67,1.16-.53.77-1.13,1.4-1.78,1.87-.64.47-1.34.8-2.07,1.02,4.2,3.69,9.82,5.81,15.82,5.99,6.91.21,13.85-.94,20.32-3.36,3.32-1.24,6.51-2.82,9.51-4.71,2.44-1.54,5.45-3.5,6.06-6.53l6.79-34.29c.43-2.17-1.23-4.2-3.45-4.2Z"/>
    </g>
  </g>
</svg>