<?xml version="1.0" encoding="UTF-8"?>
<svg id="Camada_2" data-name="Camada 2" xmlns="http://www.w3.org/2000/svg" viewBox="0 0 40.51 31.32">
  <defs>
    <style>
      .cls-1 {
        fill: #fff;
        stroke-width: 0px;
      }
    </style>
  </defs>
  <g id="Camada_1-2" data-name="Camada 1">
    <g>
      <path class="cls-1" d="m40.51,19.14c-.09.48-.16.96-.27,1.43-.42,1.83-1.29,3.42-2.6,4.76-1.08,1.1-2.16,2.2-3.28,3.26-1.95,1.84-4.3,2.71-6.97,2.72-5.7.02-11.39,0-17.09,0-1.67,0-2.89-1.15-2.94-2.73-.05-1.5.93-3.17,2.33-3.7.94-.35,1.95-.51,2.95-.68,1.75-.3,3.51-.56,5.27-.83.11-.02.22-.05.38-.08-.13-.14-.24-.26-.35-.36-3.98-3.98-7.96-7.96-11.95-11.94-.69-.68-1.12-1.47-1.22-2.45-.18-1.71,1.28-3.54,2.99-3.73,1.24-.13,2.28.25,3.15,1.13.93.94,1.86,1.87,2.8,2.8.09.09.19.18.32.3.42-1.14,1.16-1.93,2.29-2.31,1.14-.38,2.2-.17,3.22.51.41-1.16,1.15-1.97,2.3-2.35,1.14-.37,2.21-.18,3.22.51.26-.68.6-1.28,1.16-1.73,1.46-1.17,3.5-1.1,4.76.26,2.41,2.6,4.79,5.23,7.15,7.88,1.33,1.5,2.05,3.3,2.3,5.28.02.13.05.25.08.38v1.66Zm-21.27,10.33c2.66,0,5.33,0,7.99,0,2.3,0,4.33-.72,5.99-2.32,1.08-1.04,2.17-2.09,3.18-3.19,3.03-3.3,3.02-8,.02-11.33-1.56-1.73-3.14-3.45-4.71-5.18-.67-.74-1.34-1.49-2.03-2.22-.64-.68-1.66-.72-2.35-.1-.67.6-.74,1.61-.16,2.32.09.11.19.22.27.34.23.35.22.69-.02,1.03-.22.31-.61.47-.98.34-.2-.07-.39-.21-.55-.37-.58-.56-1.14-1.13-1.71-1.7-.48-.47-1.04-.67-1.7-.48-1.23.34-1.64,1.81-.76,2.78.6.65,1.25,1.25,1.86,1.89.41.43.42.97.06,1.34-.37.37-.9.36-1.35-.04-.08-.07-.15-.15-.23-.22-1.13-1.13-2.26-2.25-3.38-3.39-.46-.46-.99-.7-1.64-.55-.64.15-1.07.54-1.26,1.18-.2.68.01,1.24.49,1.73,1.16,1.16,2.31,2.31,3.47,3.47.13.13.25.27.35.43.2.33.17.66-.06.96-.22.3-.54.46-.89.34-.26-.09-.52-.26-.71-.45-2.92-2.9-5.82-5.81-8.73-8.72-.14-.14-.28-.28-.44-.4-1.01-.77-2.49-.16-2.66,1.1-.09.67.19,1.16.65,1.62,4.49,4.48,8.97,8.97,13.46,13.45.32.32.53.66.38,1.12-.15.45-.53.59-.95.65-1.42.22-2.84.44-4.26.66-1.63.26-3.25.5-4.88.79-1.04.19-1.74,1.03-1.81,2.07-.04.57.28.96.84,1.04.16.02.32.02.47.02,2.9,0,5.8,0,8.7,0Z"/>
      <path class="cls-1" d="m0,8.46C.06,4.32,2.76,1.01,6.61.18c3.66-.8,7.58,1.16,9.15,4.57.26.57.13,1.08-.35,1.33-.47.25-.98.08-1.28-.49-.51-.97-1.16-1.81-2.04-2.48C8.95.76,4.31,1.85,2.55,5.36c-1.59,3.17-.41,6.91,2.71,8.59.15.08.3.16.44.26.45.31.59.79.35,1.23-.23.43-.75.59-1.23.36-1.23-.57-2.26-1.39-3.09-2.47C.58,11.83.02,10.13,0,8.46Z"/>
    </g>
  </g>
</svg>