<?xml version="1.0" encoding="utf-8"?>
<!-- Generator: Adobe Illustrator 28.0.0, SVG Export Plug-In . SVG Version: 6.00 Build 0)  -->
<svg version="1.1" id="Camada_2_00000034799196235311936480000009919959139427891882_"
	 xmlns="http://www.w3.org/2000/svg" xmlns:xlink="http://www.w3.org/1999/xlink" x="0px" y="0px" viewBox="0 0 17.8 37"
	 style="enable-background:new 0 0 17.8 37;" xml:space="preserve">
<style type="text/css">
	.st0{fill:#113F59;}
	.st1{fill:url(#SVGID_1_);}
</style>
<g id="Camada_1-2">
	<path class="st0" d="M16.1,18.1c-0.3-0.1-0.5-0.3-0.7-0.5c-1.3-1.3-2.5-2.6-3.8-4l-0.1-0.1c-1.8,1.2-3.7,1.6-5.8,1
		c-1.7-0.4-3-1.4-4-2.9c-1.9-2.9-1.4-6.8,1.2-9c2.7-2.3,6.5-2.3,9.1,0c2.7,2.4,3.2,6.7,0.7,9.6c0.5,0.5,0.9,1,1.4,1.5
		c0.9,0.9,1.7,1.8,2.6,2.7c0.6,0.6,0.3,1.4-0.4,1.6l0,0C16.5,18.1,16.1,18.1,16.1,18.1z M7.6,13c2.8,0,5.1-2.3,5.1-5.1
		s-2.3-5.1-5.1-5.1S2.5,5.1,2.5,7.9C2.5,10.8,4.8,13,7.6,13L7.6,13z"/>
</g>
<g id="Camada_1-2_00000167367555145079690330000001932716085331630525_">
	
		<linearGradient id="SVGID_1_" gradientUnits="userSpaceOnUse" x1="0.6477" y1="9.6125" x2="17.1908" y2="9.6125" gradientTransform="matrix(1 0 0 -1 0 38)">
		<stop  offset="0" style="stop-color:#7543C4"/>
		<stop  offset="1" style="stop-color:#7532AB"/>
	</linearGradient>
	<path class="st1" d="M16.1,37c-0.3-0.1-0.5-0.3-0.7-0.5c-1.3-1.3-2.5-2.6-3.8-4l-0.1-0.1c-1.8,1.2-3.7,1.6-5.8,1
		c-1.7-0.4-3-1.4-4-2.9c-1.9-2.9-1.4-6.8,1.2-9c2.7-2.3,6.5-2.3,9.1,0c2.7,2.4,3.2,6.7,0.7,9.6c0.5,0.5,0.9,1,1.4,1.5
		c0.9,0.9,1.7,1.8,2.6,2.7c0.6,0.6,0.3,1.4-0.4,1.6l0,0C16.5,37,16.1,37,16.1,37z M7.6,31.9c2.8,0,5.1-2.3,5.1-5.1s-2.3-5.1-5.1-5.1
		S2.5,24,2.5,26.8S4.8,31.9,7.6,31.9L7.6,31.9z"/>
</g>
</svg>
